<svg width="173" height="184" viewBox="0 0 173 184" fill="none" xmlns="http://www.w3.org/2000/svg">
<path d="M18.085 107.332C13.2993 102.222 16.923 93.8639 23.9244 93.8639L149.755 93.8639C156.756 93.8639 160.38 102.222 155.594 107.332L92.6789 174.517C89.5178 177.893 84.1613 177.893 81.0002 174.517L18.085 107.332Z" fill="#023774" stroke="#021B64" stroke-width="4"/>
<path d="M19.7343 128.015C14.5287 122.222 18.6403 113 26.4288 113L105.57 113C113.358 113 117.47 122.222 112.264 128.015L72.6938 172.054C69.118 176.033 62.8807 176.033 59.3049 172.054L19.7343 128.015Z" stroke="#05D6EB" stroke-width="2"/>
<path d="M18.085 76.3956L81.0002 9.21049C84.1613 5.83482 89.5178 5.83482 92.6789 9.21049L155.594 76.3956C160.38 81.5061 156.756 89.8639 149.755 89.8639L23.9244 89.8639C16.923 89.8639 13.2993 81.5061 18.085 76.3956Z" fill="#06EFFE" stroke="#021B64" stroke-width="4"/>
</svg>
