<svg viewBox="0 0 250 250" fill="none" xmlns="http://www.w3.org/2000/svg">
<path d="M221.792 161.075C213.471 183.65 197.469 202.576 176.592 214.533C155.714 226.491 131.294 230.718 107.612 226.473C83.9296 222.228 62.4976 209.783 47.0732 191.318C31.6487 172.853 23.2163 149.548 23.2544 125.489C23.2925 101.429 31.7986 78.1512 47.2814 59.7355C62.7641 41.3197 84.2354 28.9418 107.931 24.7719C131.626 20.602 156.033 24.9063 176.873 36.9301C197.712 48.9539 213.654 67.9298 221.903 90.5308" stroke="#41C4FF" stroke-width="3" stroke-miterlimit="10"/>
<path d="M52.4797 72.5203C23.496 112.572 32.4684 168.537 72.5202 197.52C112.572 226.504 168.536 217.532 197.52 177.48C226.504 137.428 217.531 81.4635 177.48 52.4798C137.428 23.496 81.4635 32.4685 52.4797 72.5203Z" stroke="white" stroke-width="1.74618" stroke-miterlimit="10"/>
</svg>
