<svg viewBox="0 0 65 91" fill="none" xmlns="http://www.w3.org/2000/svg">
<path d="M32.5 44.1071C29.4216 44.1071 26.4693 42.8842 24.2925 40.7075C22.1157 38.5307 20.8929 35.5784 20.8929 32.5C20.8929 29.4216 22.1157 26.4693 24.2925 24.2925C26.4693 22.1157 29.4216 20.8929 32.5 20.8929C35.5784 20.8929 38.5307 22.1157 40.7075 24.2925C42.8842 26.4693 44.1071 29.4216 44.1071 32.5C44.1071 34.0243 43.8069 35.5336 43.2236 36.9419C42.6403 38.3501 41.7853 39.6297 40.7075 40.7075C39.6297 41.7853 38.3501 42.6403 36.9419 43.2236C35.5336 43.8069 34.0243 44.1071 32.5 44.1071ZM32.5 0C23.8805 0 15.614 3.4241 9.51903 9.51903C3.4241 15.614 0 23.8805 0 32.5C0 51.8402 20.4605 78.4877 28.913 88.6709C30.8047 90.9501 34.1953 90.9501 36.087 88.671C44.5395 78.4877 65 51.8402 65 32.5C65 23.8805 61.5759 15.614 55.481 9.51903C49.386 3.4241 41.1195 0 32.5 0Z" fill="#D01417"/>
</svg>
