<svg viewBox="0 0 53 40" fill="none" xmlns="http://www.w3.org/2000/svg">
<path fill-rule="evenodd" clip-rule="evenodd" d="M0.534103 12.5134C0.893937 13.6128 1.51016 14.6243 2.37433 15.5309C3.27674 16.4829 4.4625 17.2224 5.93584 17.7522C7.40209 18.2807 9.2919 18.5527 11.6237 18.5527H14.7872C14.4075 22.4386 13.0206 25.7493 10.6279 28.4863C8.2351 31.2177 4.91443 33.6161 0.672925 35.6759L3.24275 39.6638C8.8315 37.2853 13.6085 33.8073 17.5752 29.2088C21.5461 24.6103 23.5195 20.0515 23.5195 15.5309C23.5195 10.6746 22.3763 6.86658 20.0657 4.11542C17.7551 1.36567 14.4486 0 10.1405 0C7.41482 0 5.0391 0.906668 3.0246 2.72708C1.00726 4.5475 0 6.67675 0 9.10633C0 10.2737 0.179937 11.4141 0.534103 12.5134ZM29.4312 12.5134C29.7882 13.6128 30.4087 14.6243 31.2687 15.5309C32.1739 16.4829 33.3611 17.2224 34.8274 17.7522C36.2993 18.2807 38.1891 18.5527 40.5195 18.5527H43.6787C43.3018 22.4386 41.9164 25.7493 39.5222 28.4863C37.1266 31.2177 33.8116 33.6161 29.5673 35.6759L32.1413 39.6638C37.7272 37.2853 42.5057 33.8073 46.4737 29.2088C50.4418 24.6103 52.4167 20.0515 52.4167 15.5309C52.4167 10.6746 51.2706 6.86658 48.9614 4.11542C46.6537 1.36567 43.3472 0 39.0391 0C36.3078 0 33.9362 0.906668 31.9217 2.72708C29.9044 4.5475 28.8972 6.67675 28.8972 9.10633C28.8972 10.2737 29.0728 11.4141 29.4312 12.5134Z" fill="#013878"/>
</svg>
