<svg viewBox="0 0 373 373" fill="none" xmlns="http://www.w3.org/2000/svg">
<path d="M54.0703 111.353C71.4232 80.4832 99.0889 56.707 132.217 44.1929C165.345 31.6789 201.821 31.2257 235.249 42.9129C268.678 54.6 296.926 77.6816 315.04 108.111C333.155 138.54 339.98 174.374 334.318 209.332C328.657 244.289 310.871 276.138 284.079 299.295C257.286 322.451 223.197 335.437 187.788 335.977C152.38 336.516 117.911 324.573 90.4262 302.243C62.9412 279.913 44.1938 248.62 37.4709 213.851" stroke="#41C4FF" stroke-width="3" stroke-miterlimit="10"/>
<path d="M279.503 279.503C330.958 228.048 330.958 144.623 279.503 93.1678C228.048 41.7127 144.623 41.7127 93.1678 93.1678C41.7126 144.623 41.7126 228.048 93.1678 279.503C144.623 330.958 228.048 330.958 279.503 279.503Z" stroke="#013878" stroke-width="1.74618" stroke-miterlimit="10"/>
</svg>
